<?xml version="1.0" standalone="yes"?>
<svg xmlns="http://www.w3.org/2000/svg" width="547" height="180">
<path style="fill:#ffffff; stroke:none;" d="M0 0L0 180L547 180L547 0L0 0z"/>
<path style="fill:#0954a6; stroke:none;" d="M35 121C33.0695 111.045 28.1845 101.146 27.5432 91C27.1998 85.5672 29.41 78.2241 30.9707 73C38.6855 47.1754 67.276 26.0536 94.9105 31.2631C104.743 33.1167 113.459 38.4328 121.3 44.2677C126.901 48.4357 133.219 54.0997 136.826 60.1705C141.503 68.0428 146.04 81.7709 145.457 91C144.69 103.135 138.129 113.091 134 124C151.558 111.623 151.917 78.2303 141.157 61C135.082 51.2719 124.09 43.0898 116 35C106.121 25.1206 98.1115 14.1726 83 15.0432C71.4055 15.7112 62.5548 28.4452 55 36L36 55C32.5885 58.4115 28.3613 61.7722 25.9375 66C22.5512 71.9067 22.0107 80.3563 22 87C21.9779 100.733 22.9163 112.487 35 121z"/>
<path style="fill:#0a57a8; stroke:none;" d="M121 137C112.314 140.287 104.249 145.977 94.9105 147.737C86.3921 149.342 79.6439 146.347 71.9606 143.63C68.7563 142.496 65.2891 142.128 62.2855 140.471C57.6141 137.895 52.9563 134.388 49.0039 130.826C45.6935 127.843 43.3438 124.324 39 123C37.7622 110.916 29.2654 100.935 30.1844 88C32.2738 58.593 56.2947 32.3688 87 33.1289C97.9504 33.3999 107.153 37.9004 117 42C114.031 36.2901 107.699 35.5453 102.039 33.5509C84.9881 27.5427 62.5633 31.5556 49.625 44.6157C45.4945 48.7851 40.29 52.7511 37.0424 57.6798C31.6557 65.8551 27.2059 80.183 27.2747 90C27.3231 96.9005 30.2267 104.52 32.3758 111C33.7043 115.006 34.0411 119.474 36.5139 123C52.0936 145.213 78.0187 157.119 104.039 147.268C111.548 144.425 115.941 144.176 121 137z"/>
<path style="fill:#0b5aaa; stroke:none;" d="M39 123C44.378 125.723 48.0825 131.241 53 134.841C64.3788 143.17 80.5465 149.676 94.9105 147.87C122.26 144.433 145.532 117.539 145.725 90C145.753 86.074 144.125 81.8631 143.389 78C142.088 71.1745 139.92 63.2439 135.675 57.615C113.144 27.7351 65.1433 24.3374 41.8997 55C39.334 58.3847 36.2929 62.2224 34.659 66.1698C29.6617 78.2421 28.9053 92.5027 32.4282 105C34.1719 111.186 37.8758 116.693 39 123z"/>
<path style="fill:#0c5cac; stroke:none;" d="M78 35.439C70.155 36.6739 62.6499 39.5476 56 43.865C50.1891 47.6377 45.4179 52.333 41.4398 58C14.1654 96.8542 48.382 150.842 95 143.561C102.8 142.343 110.426 139.669 117 135.251C123.096 131.154 128.154 126.096 132.251 120C158.403 81.087 124 28.1983 78 35.439z"/>
<path style="fill:#0d5ead; stroke:none;" d="M76 37.4645C69.6068 38.6151 63.4361 41.1798 58 44.6991C20.5756 68.9268 28.5341 128.322 72 140.572C79.5521 142.7 89.265 142.928 97 141.535C103.393 140.385 109.564 137.82 115 134.301C152.424 110.073 144.466 50.6782 101 38.4282C93.4479 36.2999 83.735 36.0724 76 37.4645z"/>
<path style="fill:#1065b2; stroke:none;" d="M128 61C126.666 65.8109 130.698 71.373 132.135 76C135.104 85.5593 135.945 95.9297 130.819 104.91C126.238 112.938 122.317 121.859 114.086 126.495C102.749 132.881 90.2124 137.306 77 134.32C69.5793 132.644 64.5943 128.851 58.9753 123.999C51.8854 117.877 42.9125 109.181 40.0548 100C32.9134 77.0568 50.8278 51.5088 72.0039 44.1929C84.2115 39.9754 93.9793 43.9505 106 45C101.604 40.752 94.9298 40.0744 89 40.0039C75.5518 39.8439 60.3849 43.6043 50.4946 53.4946C33.8403 70.1489 32.9508 98.4063 45.561 117.196C59.112 137.388 85.7294 145.125 108 134.677C112.218 132.698 114.772 129.756 118.258 126.865C121.087 124.52 124.047 122.893 126.266 119.871C139.587 101.731 138.021 80.0495 128 61z"/>
<path style="fill:#1066b3; stroke:none;" d="M47 113C48.1529 107.926 43.744 102.068 42.669 97C40.8151 88.2609 42.5781 79.0063 46.3233 71C49.2009 64.8485 53.0454 58.3139 58.4252 54.0579C84.9553 33.0692 124.8 51.1317 130.535 83C132.21 92.3018 129.726 100.814 125.845 109.17C123.041 115.205 119.198 119.85 113.985 123.985C108.087 128.665 100.435 132.197 93 133.535C81.9376 135.526 73.2477 130.93 63 128C72.5974 137.617 91.2102 136.473 103 132.309C108.667 130.307 115.922 127.42 120.2 123.061C123.331 119.87 125.418 114.902 127.558 111C130.503 105.631 133.448 101.202 134.535 95C136.26 85.1504 132.332 69.4216 126.197 61.5139C122.282 56.4683 115.798 48.9359 109.871 46.2824C74.5347 30.461 32.6547 58.3591 39.3256 98C40.3096 103.847 43.8934 108.159 47 113z"/>
<path style="fill:#126ab6; stroke:none;" d="M80 45.439C72.6179 46.601 63.4778 49.3354 57.5802 54.0579C53.5395 57.2934 51.0162 61.583 48.4498 66C29.9686 97.8084 55.5761 139.093 93 133.7C98.3326 132.931 103.219 130.72 108.039 128.427C130.632 117.677 137.196 86.5122 124.532 66C115.424 51.2489 97.1524 42.7391 80 45.439z"/>
<path style="fill:#ffffff; stroke:none;" d="M83 46.6566C78.1097 48.1235 74.4831 52.5227 71 56C63.9993 62.989 56.9037 69.9004 50.0154 77C46.5776 80.5433 42.7229 84.6584 43.2569 90C43.7537 94.9681 47.6994 98.6501 51.0039 102C58.6094 109.71 66.2272 117.443 74 124.985C78.0593 128.923 82.9192 133.167 89 131.343C93.8903 129.876 97.5169 125.477 101 122C108.001 115.011 115.096 108.1 121.985 101C125.422 97.4567 129.277 93.3416 128.743 88C128.246 83.0318 124.301 79.3499 120.996 76C113.391 68.2898 105.773 60.5569 98 53.0154C93.9407 49.077 89.0808 44.8326 83 46.6566z"/>
<path style="fill:#00c0f0; stroke:none;" d="M80 70C83.9766 68.5507 87.724 67.6847 92 68.1049C106.696 69.5493 116.463 89.3223 108.142 101.895C106.058 105.044 102.345 106.623 99 108.065C96.0619 109.331 93.2306 110.127 90 109.901C86.2052 109.635 83.2239 107.84 80 106L80 118C88.3954 119.559 96.3676 120.079 103 113.945C109.415 108.012 123.546 97.878 122.577 88C122.042 82.5479 117.623 78.6427 113.999 75C107.683 68.6506 101.355 62.3116 95 56.0008C92.2364 53.2561 87.7298 47.5331 83.2284 50.0471C77.8209 53.0671 80 64.8431 80 70z"/>
<path style="fill:#1d1363; stroke:none;" d="M281 51C278.166 64.9238 273.208 78.1347 270 92L278 92L278 129C284.054 129 289.177 127.818 295.039 127.129C300.868 126.444 304.244 127.022 309 123C311.565 129.978 322.507 128.777 329 130C329 119.014 327.199 106.429 331 96C327.45 93.6074 324.095 91.3049 320 90C318.519 91.5982 317.939 92.1083 316 93C324.435 84.839 334.97 87 346 87C346 81.7278 345.467 76.7459 348 72C342.396 65.2204 338.617 66.115 331 68C333.206 65.748 335.193 63.5764 337 61C333.749 59.1906 329.879 55.5554 326 55.5764C322.318 55.5963 318.867 57.8775 315 58L317 54C313.291 52.7439 306.147 50.0231 302.329 51.6389C300.123 52.5723 300.178 55.3962 299.278 57.2863C297.179 61.6895 294.076 65.558 292 70C292.164 64.4865 294.761 59.3574 296 54L281 51M358 51C357.172 55.9999 361.173 66.204 366.213 68.3966C369.791 69.9531 375.163 69 379 69C377.818 64.8967 375.724 57.7525 372.301 54.9884C368.884 52.2293 362.184 52.083 358 51M503 51C501.596 58.1967 503 66.6045 503 74L503 123L489 123L490 128C499.254 128 507.849 128.837 517 130L517 54L503 51z"/>
<path style="fill:#1673bc; stroke:none;" d="M49 78C58.2996 71.4492 68.4492 61.2996 75 52C62.9468 54.1499 51.1499 65.9468 49 78z"/>
<path style="fill:#1d1363; stroke:none;" d="M188 129L202 129L202 125L247 125L247 129L261 129L261 85C261 76.3019 259.984 67.2758 263 59C260.048 56.9921 256.559 53.6121 253 52.875C249.261 52.1005 245.771 55.6208 242 55.9414C230.212 56.9434 217.832 56.1376 206 55.9961C201.106 55.9376 196.793 54.3055 192.015 53.7245C190.298 53.5157 188.287 53.504 187.438 55.3326C186.523 57.3036 187.675 59.9709 187.875 62C188.296 66.2798 188 70.703 188 75L188 129M419 52C413.721 57.8599 402.362 56.8371 395 55.5363C392.043 55.0137 387.218 52.6133 384.336 54.2014C381.09 55.9904 383.878 62.1408 383.981 65C384.392 76.302 384 87.6899 384 99L397 99L397 96L417 96L417 99L430 99C430 85.7011 428.017 70.7636 432 58C427.85 55.578 423.627 53.3329 419 52M443 53C441.135 62.5559 443 74.1609 443 84L452 84C451.263 86.9032 451.471 89.0493 452 92L441 92L441 98L451 98C446.639 107.838 442.834 118.619 440 129C443.636 129 450.241 130.265 453.298 127.972C455.762 126.124 456.392 121.742 457.344 119C459.746 112.084 462.924 105.283 464 98L471 98L471 123L462 123C463.63 130.47 477.505 128.79 484 130C484 119.956 481.215 104.967 486 96C482.604 92.0086 478.013 89.4747 473 88C470.847 90.6013 469.344 91.4928 466 92C465.457 85.1877 458.893 86.3744 456 81L469 81L469 84L483 84C483 75.3415 482.414 66.541 484 58C481.188 56.1045 477.563 52.787 474 52.7323C470.226 52.6742 466.988 55.8115 463 55.9807C456.019 56.277 449.751 54.3935 443 53M487 58C484.931 62.9528 486.998 68.6411 487 74L487 114L500 114L500 77C500 73.0486 501.354 65.9003 498.972 62.51C496.713 59.2934 490.558 58.7364 487 58z"/>
<path style="fill:#ffffff; stroke:none;" d="M202 61L202 77C207.149 72.4299 209.541 67.2271 212 61L202 61M215 61C218.41 62.8531 222.143 63.6636 226 64L225 68C228.832 67.9547 232.957 65.3414 236.424 65.659C239.59 65.9488 242.98 68.8942 246 70C244.694 73.0815 244.604 76.9809 242.973 79.8156C241.121 83.0341 237.061 85.1107 234 87L234 89L247 97L247 61L215 61M397 61L397 90L417 90L417 61L397 61M456 61L456 76L469 76L469 61L456 61z"/>
<path style="fill:#04499e; stroke:none;" d="M142 62C144.219 71.3663 148.106 80.1525 147.981 90C147.871 98.771 144.439 106.536 143 115C147.354 111.933 151.336 108.074 154.787 104C167.809 88.6278 155.599 71.5795 142 62z"/>
<path style="fill:#ffffff; stroke:none;" d="M308 68C313.504 67.9958 316.898 67.9626 320 63C314.496 63.0042 311.102 63.0374 308 68z"/>
<path style="fill:#03469d; stroke:none;" d="M24 67C20.3136 70.6889 16.2117 74.2708 13.8395 79C7.63093 91.3773 14.7172 103.756 25 111C23.0497 101.546 21.4071 92.736 22.0895 83C22.4485 77.8779 25.4969 71.9295 24 67z"/>
<path style="fill:#00daf6; stroke:none;" d="M80 70C81.2161 75.576 83.9701 80.1069 89 83.1427C91.7384 84.7955 97.2056 84.9345 97.4035 89.0586C97.8753 98.8889 78.3558 95.6708 81.662 105.867C82.6466 108.903 86.2273 109.669 89 109.906C95.057 110.423 103.28 108.311 107.486 103.61C109.781 101.044 110.103 97.2656 110.572 94C113.043 76.7911 96.6848 61.9707 80 70z"/>
<path style="fill:#00bbef; stroke:none;" d="M63.6034 71.0324C61.4216 72.6968 62.0049 76.6196 62 79C61.9837 86.9109 60.6787 96.1778 62.2284 103.941C62.8489 107.05 66.5047 109.401 69.3781 106.971C72.475 104.353 67.1321 98.0061 66.483 95C65.5206 90.5425 66.2833 86.195 67.9028 82C68.8216 79.6201 71.1387 76.7004 70.8873 74.0586C70.5871 70.9037 66.0886 69.1367 63.6034 71.0324z"/>
<path style="fill:#ffffff; stroke:none;" d="M290 72L289 77C293.242 82.5996 291 94.1501 291 101C296.444 97.165 300.556 91.835 306 88C302.303 86.4485 297.983 87 294 87L294 73L290 72M308 73L308 82L314 82L314 73L308 73M327 73L327 82L333 82L333 73L327 73z"/>
<path style="fill:#00c9f2; stroke:none;" d="M72 74C67.1542 80.5322 64.4493 88.8829 66.723 97C67.6231 100.213 69.6809 102.964 71 106C73.7567 103.913 75.068 102.334 76 99C72.2714 95.7925 70.5984 91.9884 71.4715 87C72.3273 82.1102 75.9083 78.1248 72 74z"/>
<path style="fill:#ffffff; stroke:none;" d="M202 79L202 96C206.53 94.2573 210.514 91.3667 214 88C211.291 86.3466 209.146 85.4078 206 85L206 80C214.733 80 226.446 83.3112 231 74C227.654 74 223.45 73.3434 220.285 74.5988C217.631 75.6519 215.862 77.9758 212.996 78.6829C209.559 79.5311 205.521 79 202 79z"/>
<path style="fill:#1d1363; stroke:none;" d="M356 79L356 84L363 84L363 115C363 118.328 361.825 124.615 364.028 127.397C366.468 130.478 374.524 129 378 129C382.456 129 389.507 130.329 393.61 128.397C396.346 127.107 397.308 123.551 398.424 121C400.879 115.39 403.951 110.09 405 104C401.315 102.964 393.921 99.7811 390.356 102.067C388.128 103.497 388.608 106.769 387.95 109C386.43 114.153 383.484 118.807 382 124L381 120L377 120L377 97C377 91.9966 376.601 87.4946 379 83C376.634 80.0929 372.138 75.0527 368 75.1628C363.906 75.2718 360.539 78.8527 356 79z"/>
<path style="fill:#00d4f5; stroke:none;" d="M75 77C70.3651 85.2338 69.0161 94.4994 77 101C81.491 94.6839 81.3687 81.852 75 77z"/>
<path style="fill:#00e9fa; stroke:none;" d="M80 82C79.5845 87.2652 79.0239 91.739 80 97C85.8882 92.3324 86.012 86.5802 80 82z"/>
<path style="fill:#00f2fc; stroke:none;" d="M90 84C92.3454 89.6939 90.2284 92.1948 87 97C91.4271 96.9477 103.071 91.8548 96.3974 85.9884C94.786 84.572 92.0079 84.3979 90 84z"/>
<path style="fill:#1d1363; stroke:none;" d="M330 106L343 106C343.898 102.709 348.918 94.6609 347.522 91.6034C346.419 89.1897 341.946 90.2506 340.015 90.5949C333.055 91.8363 331.075 99.7572 330 106z"/>
<path style="fill:#ffffff; stroke:none;" d="M220 97C222.876 98.2186 226.051 98.1657 229 99.3519C235.073 101.795 240.667 105.189 247 107L247 99C242.441 99 237.504 99.5331 233 98.7755C227.835 97.9067 225.278 94.7455 220 97z"/>
<path style="fill:#1673bc; stroke:none;" d="M126 96C115.125 106.875 101.857 117.426 93 130C105.82 129.406 118.017 119.33 123.229 107.999C124.926 104.311 127.188 100.018 126 96z"/>
<path style="fill:#ffffff; stroke:none;" d="M291 102L291 112C294.994 109.501 298.574 105.213 303 103.603C306.862 102.197 311.943 103 316 103L316 98C311.288 98.1524 308.388 100.669 304 101.687C299.925 102.632 295.166 102 291 102M202 99L202 119L225 119C219.101 115.27 210.983 112.32 204 112L204 107C209.496 107 215.641 106.239 221 107.61C229.923 109.893 237.878 115.429 247 117L247 109C240.957 109 233.855 110.017 228 108.363C221.769 106.602 216.571 102.672 210 102L210 99L202 99z"/>
<path style="fill:#1d1363; stroke:none;" d="M409 104C410.119 110.275 413.501 116.261 416.22 121.999C417.249 124.172 418.087 127.26 420.418 128.397C424.005 130.146 430.08 129 434 129C432.785 122.161 428.629 116.53 426.556 110C425.757 107.481 426.221 103.644 423.671 102.067C420.025 99.8119 412.748 102.946 409 104z"/>
<path style="fill:#ffffff; stroke:none;" d="M315 105C311.496 107.671 308.545 110.397 306 114L316 114C315.998 110.874 316.213 107.89 315 105z"/>
<path style="fill:#1d1363; stroke:none;" d="M330 108C331.57 112.825 333.251 124.097 338.275 126.397C341.279 127.772 345.766 127 349 127C348.231 122.532 345.978 110.758 341.581 108.603C338.461 107.075 333.399 108 330 108z"/>
<path style="fill:#ffffff; stroke:none;" d="M291 113L291 125C295.31 121.964 298.964 118.31 302 114C298.214 113.997 294.694 113.879 291 113M309 123L316 123L316 117C312.834 118.48 311.049 120.168 309 123z"/>
<path style="fill:#00abeb; stroke:none;" d="M80 118C80.0149 119.651 79.9156 121.387 80.2284 123.02C82.6435 135.629 94.6094 122.813 98 118C91.76 119.158 86.2461 118.789 80 118z"/>
<path style="fill:#ffffff; stroke:none;" d="M380 125L381 126L380 125z"/>
<path style="fill:#04499e; stroke:none;" d="M59 145C68.5795 158.599 85.6278 170.809 101 157.787C105.074 154.336 108.933 150.354 112 146C103.869 146.073 97.151 150.365 89 150.91C78.3475 151.624 69.0772 147.387 59 145z"/>
</svg>
